<?xml version="1.0" encoding="utf-8"?>
<!-- Generator: Adobe Adobe Illustrator 24.2.0, SVG Export Plug-In . SVG Version: 6.00 Build 0)  -->
<svg version="1.1" id="Layer_1" xmlns="http://www.w3.org/2000/svg" xmlns:xlink="http://www.w3.org/1999/xlink" x="0px" y="0px"
	 viewBox="0 0 965 1043.41" style="enable-background:new 0 0 965 1043.41;" xml:space="preserve">
<style type="text/css">
	.st0{fill:url(#SVGID_1_);}
	.st1{fill:url(#SVGID_2_);}
	.st2{fill:url(#SVGID_3_);}
	.st3{fill:url(#SVGID_4_);}
	.st4{fill:url(#SVGID_5_);}
</style>
<g>
	<linearGradient id="SVGID_1_" gradientUnits="userSpaceOnUse" x1="368.6903" y1="200.8508" x2="92.7027" y2="476.8384">
		<stop  offset="0" style="stop-color:#363636"/>
		<stop  offset="1" style="stop-color:#000000"/>
	</linearGradient>
	<polygon class="st0" points="0,475.71 92.77,568.47 441.7,221.67 351.02,128.95 	"/>
	<linearGradient id="SVGID_2_" gradientUnits="userSpaceOnUse" x1="129.8248" y1="512.3904" x2="348.894" y2="731.4596">
		<stop  offset="0" style="stop-color:#000000"/>
		<stop  offset="1" style="stop-color:#4D4D4D"/>
	</linearGradient>
	<polygon class="st1" points="93.84,382.57 1.07,475.34 347.96,824.36 440.69,733.69 	"/>
	<linearGradient id="SVGID_3_" gradientUnits="userSpaceOnUse" x1="535.7729" y1="909.6394" x2="606.9376" y2="980.8041">
		<stop  offset="0" style="stop-color:#000000"/>
		<stop  offset="1" style="stop-color:#4D4D4D"/>
	</linearGradient>
	<polygon class="st2" points="489.66,769.69 396.89,862.46 575.71,1043.41 667.94,952.24 	"/>
	<linearGradient id="SVGID_4_" gradientUnits="userSpaceOnUse" x1="523.0243" y1="127.1975" x2="780.2274" y2="384.4006">
		<stop  offset="0" style="stop-color:#000000"/>
		<stop  offset="1" style="stop-color:#4D4D4D"/>
	</linearGradient>
	<polygon class="st3" points="489.66,0 396.89,92.77 869.73,567.74 962.83,477.43 	"/>
	<linearGradient id="SVGID_5_" gradientUnits="userSpaceOnUse" x1="821.0657" y1="529.3608" x2="542.6122" y2="807.8143">
		<stop  offset="0" style="stop-color:#4D4D4D"/>
		<stop  offset="1" style="stop-color:#000000"/>
	</linearGradient>
	<polygon class="st4" points="965,479.26 872.23,386.49 396.17,860.42 486.48,953.52 	"/>
</g>
</svg>
